<?xml version="1.0" standalone="no"?>
<!DOCTYPE svg PUBLIC "-//W3C//DTD SVG 20010904//EN"
 "http://www.w3.org/TR/2001/REC-SVG-20010904/DTD/svg10.dtd">
<svg version="1.0" xmlns="http://www.w3.org/2000/svg"
 width="1024.000000pt" height="1024.000000pt" viewBox="0 0 1024.000000 1024.000000"
 preserveAspectRatio="xMidYMid meet">
<metadata>
Created by potrace 1.11, written by Peter Selinger 2001-2013
</metadata>
<g transform="translate(0.000000,1024.000000) scale(0.100000,-0.100000)"
fill="#000000" stroke="none">
<path d="M3840 9561 c-323 -108 -642 -282 -910 -498 -513 -413 -925 -1069
-1080 -1718 -70 -290 -90 -478 -90 -824 0 -357 21 -547 92 -831 151 -609 511
-1218 953 -1611 400 -357 836 -579 1335 -679 328 -66 560 -80 1300 -80 289 1
589 1 668 0 l142 0 0 -1341 0 -1341 33 8 c17 3 89 26 160 50 617 212 1154 645
1528 1234 280 441 435 879 494 1400 24 210 17 730 -13 911 -74 447 -213 828
-440 1210 -317 532 -734 919 -1267 1175 -348 168 -714 256 -1170 284 -93 5
-488 10 -877 10 l-708 0 0 1340 c0 1270 -1 1340 -17 1340 -10 -1 -70 -18 -133
-39z"/>
</g>
</svg>
